<svg xmlns="http://www.w3.org/2000/svg" viewBox="0 0 32 32" width="32" height="32">
  <!-- Shield background -->
  <path d="M16 2 L6 8 L6 18 C6 24 16 30 16 30 C16 30 26 24 26 18 L26 8 Z"
        fill="#2c3e50" stroke="#34495e" stroke-width="1"/>

  <!-- Inner shield -->
  <path d="M16 4 L8 9 L8 17 C8 21.5 16 26 16 26 C16 26 24 21.5 24 17 L24 9 Z"
        fill="#34495e"/>

  <!-- Sword blade -->
  <rect x="15" y="8" width="2" height="12" fill="#ecf0f1"/>

  <!-- Sword guard -->
  <rect x="12" y="19" width="8" height="1.5" fill="#f39c12" rx="0.5"/>

  <!-- Sword grip -->
  <rect x="14.5" y="20.5" width="3" height="4" fill="#8b4513" rx="0.5"/>

  <!-- Sword pommel -->
  <circle cx="16" cy="25.5" r="1.5" fill="#f39c12"/>

  <!-- Shield decoration - top cross -->
  <rect x="15" y="6" width="2" height="4" fill="#e74c3c"/>
  <rect x="13" y="7" width="6" height="2" fill="#e74c3c"/>
</svg>